<svg xmlns="http://www.w3.org/2000/svg" xmlns:xlink="http://www.w3.org/1999/xlink" version="1.1" id="Layer_1" x="0px" y="0px" viewBox="0 0 36 36" style="enable-background:new 0 0 36 36;" xml:space="preserve">
<style type="text/css">
	.st0{fill:#FFFFFF;}
</style>
<path class="st0" d="M1.2,32.5c-0.8,0.8-0.8,2,0,2.8c0.8,0.8,2.1,0.8,2.8,0L1.2,32.5z M35.7,2.9c0-1.1-0.9-2-2-2h-18  c-1.1,0-2,0.9-2,2s0.9,2,2,2h16v16c0,1.1,0.9,2,2,2c1.1,0,2-0.9,2-2V2.9z M4,35.3l31.1-31l-2.8-2.8l-31.1,31L4,35.3z"/>
</svg>